<svg width="18" height="13" viewBox="0 0 18 13" fill="none" xmlns="http://www.w3.org/2000/svg">
  <path fill-rule="evenodd" clip-rule="evenodd" d="M17.4375 1H0.5625C0.252 1 0 0.776 0 0.5C0 0.224 0.252 0 0.5625 0H17.4375C17.748 0 18 0.224 18 0.5C18 0.776 17.748 1 17.4375 1" fill="#333842"/>
  <path fill-rule="evenodd" clip-rule="evenodd" d="M17.4375 9H0.5625C0.252 9 0 8.776 0 8.5C0 8.224 0.252 8 0.5625 8H17.4375C17.748 8 18 8.224 18 8.5C18 8.776 17.748 9 17.4375 9" fill="#333842"/>
  <path fill-rule="evenodd" clip-rule="evenodd" d="M17.4375 5H0.5625C0.252 5 0 4.776 0 4.5C0 4.224 0.252 4 0.5625 4H17.4375C17.748 4 18 4.224 18 4.5C18 4.776 17.748 5 17.4375 5" fill="#333842"/>
  <path fill-rule="evenodd" clip-rule="evenodd" d="M17.4375 13H0.5625C0.252 13 0 12.776 0 12.5C0 12.224 0.252 12 0.5625 12H17.4375C17.748 12 18 12.224 18 12.5C18 12.776 17.748 13 17.4375 13" fill="#333842"/>
</svg>
