<svg width="18" height="14" viewBox="0 0 18 14" fill="none" xmlns="http://www.w3.org/2000/svg">
  <path fill-rule="evenodd" clip-rule="evenodd" d="M17.4375 1H0.5625C0.252 1 0 0.776 0 0.5C0 0.224 0.252 0 0.5625 0H17.4375C17.748 0 18 0.224 18 0.5C18 0.776 17.748 1 17.4375 1" fill="#333842"/>
  <path fill-rule="evenodd" clip-rule="evenodd" d="M17.4375 9H0.5625C0.252 9 0 8.776 0 8.5C0 8.224 0.252 8 0.5625 8H17.4375C17.748 8 18 8.224 18 8.5C18 8.776 17.748 9 17.4375 9" fill="#333842"/>
  <path fill-rule="evenodd" clip-rule="evenodd" d="M14.5013 5.09536H3.54768C3.24536 5.09536 3 4.85 3 4.54768C3 4.24536 3.24536 4 3.54768 4H14.5013C14.8036 4 15.049 4.24536 15.049 4.54768C15.049 4.85 14.8036 5.09536 14.5013 5.09536" fill="#333842"/>
  <path fill-rule="evenodd" clip-rule="evenodd" d="M14.5013 13.0954H3.54768C3.24536 13.0954 3 12.85 3 12.5477C3 12.2454 3.24536 12 3.54768 12H14.5013C14.8036 12 15.049 12.2454 15.049 12.5477C15.049 12.85 14.8036 13.0954 14.5013 13.0954Z" fill="#333842"/>
</svg>
