<svg width="18" height="14" viewBox="0 0 18 14" fill="none" xmlns="http://www.w3.org/2000/svg">
  <path fill-rule="evenodd" clip-rule="evenodd" d="M17.4375 1H0.5625C0.252 1 0 0.776 0 0.5C0 0.224 0.252 0 0.5625 0H17.4375C17.748 0 18 0.224 18 0.5C18 0.776 17.748 1 17.4375 1" fill="#333842"/>
  <path fill-rule="evenodd" clip-rule="evenodd" d="M11.5013 5.09536H0.54768C0.245361 5.09536 0 4.85 0 4.54768C0 4.24536 0.245361 4 0.54768 4H11.5013C11.8036 4 12.049 4.24536 12.049 4.54768C12.049 4.85 11.8036 5.09536 11.5013 5.09536" fill="#333842"/>
  <path fill-rule="evenodd" clip-rule="evenodd" d="M11.5013 13.0954H0.54768C0.245361 13.0954 0 12.85 0 12.5477C0 12.2454 0.245361 12 0.54768 12H11.5013C11.8036 12 12.049 12.2454 12.049 12.5477C12.049 12.85 11.8036 13.0954 11.5013 13.0954" fill="#333842"/>
  <path fill-rule="evenodd" clip-rule="evenodd" d="M17.4375 9H0.5625C0.252 9 0 8.776 0 8.5C0 8.224 0.252 8 0.5625 8H17.4375C17.748 8 18 8.224 18 8.5C18 8.776 17.748 9 17.4375 9" fill="#333842"/>
</svg>
