<svg width="19" height="14" viewBox="0 0 19 14" fill="none" xmlns="http://www.w3.org/2000/svg">
  <path fill-rule="evenodd" clip-rule="evenodd" d="M17.4375 1H0.5625C0.252 1 0 0.776 0 0.5C0 0.224 0.252 0 0.5625 0H17.4375C17.748 0 18 0.224 18 0.5C18 0.776 17.748 1 17.4375 1" fill="#333842"/>
  <path fill-rule="evenodd" clip-rule="evenodd" d="M17.4375 9H0.5625C0.252 9 0 8.776 0 8.5C0 8.224 0.252 8 0.5625 8H17.4375C17.748 8 18 8.224 18 8.5C18 8.776 17.748 9 17.4375 9" fill="#333842"/>
  <path fill-rule="evenodd" clip-rule="evenodd" d="M17.5013 5.09536H6.54768C6.24536 5.09536 6 4.85 6 4.54768C6 4.24536 6.24536 4 6.54768 4H17.5013C17.8036 4 18.049 4.24536 18.049 4.54768C18.049 4.85 17.8036 5.09536 17.5013 5.09536" fill="#333842"/>
  <path fill-rule="evenodd" clip-rule="evenodd" d="M17.5013 13.0954H6.54768C6.24536 13.0954 6 12.85 6 12.5477C6 12.2454 6.24536 12 6.54768 12H17.5013C17.8036 12 18.049 12.2454 18.049 12.5477C18.049 12.85 17.8036 13.0954 17.5013 13.0954" fill="#333842"/>
</svg>
