<svg width="18" height="17" viewBox="0 0 18 17" fill="none" xmlns="http://www.w3.org/2000/svg">
<path fill-rule="evenodd" clip-rule="evenodd" d="M5.8908 11.2968C5.7918 11.4472 5.6468 11.5254 5.49981 11.5254C5.39081 11.5254 5.27982 11.4814 5.18782 11.3922L0.187994 6.50322C0.0689964 6.38589 0 6.21111 0 6.02533C0 5.83955 0.0689964 5.66477 0.187994 5.54743L5.18782 0.658485C5.40281 0.448261 5.7178 0.492261 5.8908 0.75382C6.06279 1.01782 6.02779 1.40283 5.8128 1.61427L1.81231 5.52539H12.3333C15.4568 5.52539 18 7.99269 18 11.0254C18 14.0581 15.4568 16.5254 12.3333 16.5254H11.2941C10.9813 16.5254 10.7274 16.279 10.7274 15.9754C10.7274 15.6718 10.9813 15.4254 11.2941 15.4254H12.3333C14.8323 15.4254 16.8667 13.452 16.8667 11.0254C16.8667 8.59879 14.8323 6.62539 12.3333 6.62539H1.91473L5.8128 10.4364C6.02779 10.6478 6.06279 11.0328 5.8908 11.2968Z" fill="#333842"/>
</svg>
