<svg width="13" height="17" viewBox="0 0 13 17" fill="none" xmlns="http://www.w3.org/2000/svg">
<path fill-rule="evenodd" clip-rule="evenodd" d="M1.14614 8.04653H6.65786C8.45357 8.02891 9.90903 6.65357 9.90903 4.966C9.90903 3.26751 8.43467 1.8853 6.62295 1.8853H1.14614V8.04653ZM0.0507812 8.55998V1.37185C0.0507812 1.08842 0.296142 0.858398 0.598462 0.858398H6.62295C9.03931 0.858398 11.0044 2.70066 11.0044 4.966C11.0044 6.32971 10.2923 7.5401 9.19825 8.28757C10.8884 8.85767 12.0998 10.3755 12.0998 12.1541C12.0998 14.4195 10.1347 16.2617 7.71831 16.2617H0.598462C0.296142 16.2617 0.0507812 16.0317 0.0507812 15.7483V8.56015V8.55998ZM1.14614 9.0736V15.2348H7.71831C9.53003 15.2348 11.0044 13.8526 11.0044 12.1541C11.0044 10.4556 9.53003 9.07343 7.71831 9.07343H6.66333C6.64988 9.07355 6.63642 9.0736 6.62295 9.0736H1.14614Z" fill="#333842"/>
</svg>
