<svg width="18" height="17" viewBox="0 0 18 17" fill="none" xmlns="http://www.w3.org/2000/svg">
<path fill-rule="evenodd" clip-rule="evenodd" d="M12.1092 11.2968C12.2082 11.4472 12.3532 11.5254 12.5002 11.5254C12.6092 11.5254 12.7202 11.4814 12.8122 11.3922L17.812 6.50322C17.931 6.38589 18 6.21111 18 6.02533C18 5.83955 17.931 5.66477 17.812 5.54743L12.8122 0.658485C12.5972 0.448261 12.2822 0.492261 12.1092 0.75382C11.9372 1.01782 11.9722 1.40283 12.1872 1.61427L16.1877 5.52539H5.66667C2.5432 5.52539 0 7.99269 0 11.0254C0 14.0581 2.5432 16.5254 5.66667 16.5254H6.70593C7.01873 16.5254 7.2726 16.279 7.2726 15.9754C7.2726 15.6718 7.01873 15.4254 6.70593 15.4254H5.66667C3.16767 15.4254 1.13333 13.452 1.13333 11.0254C1.13333 8.59879 3.16767 6.62539 5.66667 6.62539H16.0853L12.1872 10.4364C11.9722 10.6478 11.9372 11.0328 12.1092 11.2968Z" fill="#333842"/>
</svg>
