<svg width="18" height="13" viewBox="0 0 18 13" fill="none" xmlns="http://www.w3.org/2000/svg">
  <path fill-rule="evenodd" clip-rule="evenodd" d="M17.4375 1H0.5625C0.252 1 0 0.776 0 0.5C0 0.224 0.252 0 0.5625 0H17.4375C17.748 0 18 0.224 18 0.5C18 0.776 17.748 1 17.4375 1" fill="#333842"/>
  <path fill-rule="evenodd" clip-rule="evenodd" d="M17.625 9H6.375C6.168 9 6 8.776 6 8.5C6 8.224 6.168 8 6.375 8H17.625C17.832 8 18 8.224 18 8.5C18 8.776 17.832 9 17.625 9" fill="#333842"/>
  <path fill-rule="evenodd" clip-rule="evenodd" d="M17.625 5H6.375C6.168 5 6 4.776 6 4.5C6 4.224 6.168 4 6.375 4H17.625C17.832 4 18 4.224 18 4.5C18 4.776 17.832 5 17.625 5" fill="#333842"/>
  <path fill-rule="evenodd" clip-rule="evenodd" d="M17.4375 13H0.5625C0.252 13 0 12.776 0 12.5C0 12.224 0.252 12 0.5625 12H17.4375C17.748 12 18 12.224 18 12.5C18 12.776 17.748 13 17.4375 13" fill="#333842"/>
  <path fill-rule="evenodd" clip-rule="evenodd" d="M5 6.5C5 6.62799 4.951 6.75599 4.85401 6.85398L0.854207 10.8538C0.658217 11.0487 0.342233 11.0487 0.146243 10.8538C-0.0487476 10.6578 -0.0487476 10.3418 0.146243 10.1458L3.79306 6.5L0.146243 2.8542C-0.0487476 2.65821 -0.0487476 2.34223 0.146243 2.14624C0.342233 1.95125 0.658217 1.95125 0.854207 2.14624L4.85401 6.14602C4.951 6.24401 5 6.37201 5 6.5Z" fill="#333842"/>
</svg>
