<svg width="16" height="18" viewBox="0 0 16 18" fill="none" xmlns="http://www.w3.org/2000/svg">
<path fill-rule="evenodd" clip-rule="evenodd" d="M9.53787 1.95376H5.88225C5.57993 1.95376 5.33457 1.7084 5.33457 1.40608C5.33457 1.10376 5.57993 0.858398 5.88225 0.858398H14.6451C14.9475 0.858398 15.1928 1.10376 15.1928 1.40608C15.1928 1.7084 14.9475 1.95376 14.6451 1.95376H10.6763L6.60778 16.1935H10.2637C10.566 16.1935 10.8114 16.4388 10.8114 16.7411C10.8114 17.0435 10.566 17.2888 10.2637 17.2888H1.50081C1.19849 17.2888 0.953125 17.0435 0.953125 16.7411C0.953125 16.4388 1.19849 16.1935 1.50081 16.1935H5.46938L9.53787 1.95376Z" fill="#333842"/>
</svg>
