<svg width="36" height="36" viewBox="0 0 36 36" fill="none" xmlns="http://www.w3.org/2000/svg">
  <rect opacity="0.01" width="35.0515" height="35.0515" rx="3.50515" transform="matrix(-1 0 0 1 35.0508 0)" fill="#0565FF"/>
  <rect opacity="0.01" x="9.19986" y="9.20084" width="16.6495" height="16.6495" fill="#D8D8D8" stroke="#979797" stroke-width="0.876289"/>
  <path fill-rule="evenodd" clip-rule="evenodd" d="M9.85547 13.1441H10.9508V8.7627H9.85547V13.1441Z" fill="#333842"/>
  <path fill-rule="evenodd" clip-rule="evenodd" d="M8.76172 13.1442H12.0478V12.0488H8.76172V13.1442Z" fill="#333842"/>
  <path fill-rule="evenodd" clip-rule="evenodd" d="M8.76172 16.4303H12.0478V15.335H8.76172V16.4303Z" fill="#333842"/>
  <path fill-rule="evenodd" clip-rule="evenodd" d="M10.9531 17.526H12.0485V16.4307H10.9531V17.526Z" fill="#333842"/>
  <path fill-rule="evenodd" clip-rule="evenodd" d="M9.85547 18.6208H10.9508V17.5254H9.85547V18.6208Z" fill="#333842"/>
  <path fill-rule="evenodd" clip-rule="evenodd" d="M8.76172 19.7165H12.0478V18.6211H8.76172V19.7165Z" fill="#333842"/>
  <path fill-rule="evenodd" clip-rule="evenodd" d="M8.76172 23.0026H12.0478V21.9072H8.76172V23.0026Z" fill="#333842"/>
  <path fill-rule="evenodd" clip-rule="evenodd" d="M9.85547 24.0973H10.9508V23.002H9.85547V24.0973Z" fill="#333842"/>
  <path fill-rule="evenodd" clip-rule="evenodd" d="M10.9531 25.193H12.0485V24.0977H10.9531V25.193Z" fill="#333842"/>
  <path fill-rule="evenodd" clip-rule="evenodd" d="M8.76172 26.2887H12.0478V25.1934H8.76172V26.2887Z" fill="#333842"/>
  <path fill-rule="evenodd" clip-rule="evenodd" d="M25.7396 13.1442H14.786C14.4836 13.1442 14.2383 12.8988 14.2383 12.5965C14.2383 12.2942 14.4836 12.0488 14.786 12.0488H25.7396C26.0419 12.0488 26.2873 12.2942 26.2873 12.5965C26.2873 12.8988 26.0419 13.1442 25.7396 13.1442Z" fill="#333842"/>
  <path fill-rule="evenodd" clip-rule="evenodd" d="M25.7396 18.6208H14.786C14.4836 18.6208 14.2383 18.3754 14.2383 18.0731C14.2383 17.7708 14.4836 17.5254 14.786 17.5254H25.7396C26.0419 17.5254 26.2873 17.7708 26.2873 18.0731C26.2873 18.3754 26.0419 18.6208 25.7396 18.6208Z" fill="#333842"/>
  <path fill-rule="evenodd" clip-rule="evenodd" d="M25.7396 24.0973H14.786C14.4836 24.0973 14.2383 23.852 14.2383 23.5496C14.2383 23.2473 14.4836 23.002 14.786 23.002H25.7396C26.0419 23.002 26.2873 23.2473 26.2873 23.5496C26.2873 23.852 26.0419 24.0973 25.7396 24.0973Z" fill="#333842"/>
</svg>
