<svg width="18" height="13" viewBox="0 0 18 13" fill="none" xmlns="http://www.w3.org/2000/svg">
  <path fill-rule="evenodd" clip-rule="evenodd" d="M17.4375 1H0.5625C0.252 1 0 0.776 0 0.5C0 0.224 0.252 0 0.5625 0H17.4375C17.748 0 18 0.224 18 0.5C18 0.776 17.748 1 17.4375 1" fill="#333842"/>
  <path fill-rule="evenodd" clip-rule="evenodd" d="M11.625 9H0.375C0.168 9 0 8.776 0 8.5C0 8.224 0.168 8 0.375 8H11.625C11.832 8 12 8.224 12 8.5C12 8.776 11.832 9 11.625 9" fill="#333842"/>
  <path fill-rule="evenodd" clip-rule="evenodd" d="M11.625 5H0.375C0.168 5 0 4.776 0 4.5C0 4.224 0.168 4 0.375 4H11.625C11.832 4 12 4.224 12 4.5C12 4.776 11.832 5 11.625 5Z" fill="#333842"/>
  <path fill-rule="evenodd" clip-rule="evenodd" d="M17.4375 13H0.5625C0.252 13 0 12.776 0 12.5C0 12.224 0.252 12 0.5625 12H17.4375C17.748 12 18 12.224 18 12.5C18 12.776 17.748 13 17.4375 13" fill="#333842"/>
  <path fill-rule="evenodd" clip-rule="evenodd" d="M13 6.5C13 6.37201 13.049 6.24401 13.146 6.14602L17.1458 2.14624C17.3418 1.95125 17.6578 1.95125 17.8538 2.14624C18.0487 2.34223 18.0487 2.65821 17.8538 2.8542L14.2069 6.5L17.8538 10.1458C18.0487 10.3418 18.0487 10.6578 17.8538 10.8538C17.6578 11.0487 17.3418 11.0487 17.1458 10.8538L13.146 6.85398C13.049 6.75599 13 6.62799 13 6.5Z" fill="#333842"/>
</svg>
