<svg version="1.1" xmlns="http://www.w3.org/2000/svg" xmlns:xlink="http://www.w3.org/1999/xlink" x="0px" y="0px" viewBox="0 0 1000 1000" enable-background="new 0 0 1000 1000" xml:space="preserve">
  <g><path fill="#333842" d="M500,277.3c-123,0-222.7,99.7-222.7,222.7c0,123,99.7,222.7,222.7,222.7c123,0,222.8-99.7,222.8-222.7C722.8,377,623,277.3,500,277.3 M500,678.2c-98.4,0-178.2-79.7-178.2-178.2c0-98.4,79.8-178.2,178.2-178.2c98.4,0,178.2,79.8,178.2,178.2C678.2,598.4,598.4,678.2,500,678.2 M500,188.2C229.4,188.2,10,410.9,10,500c0,89.1,219.4,311.8,490,311.8c270.6,0,490-222.8,490-311.8C990,410.9,770.6,188.2,500,188.2 M500,767.3C254,767.3,54.5,576.4,54.5,500c0-76.4,199.5-267.3,445.5-267.3c246,0,445.5,190.9,445.5,267.3C945.5,576.4,746,767.3,500,767.3"/></g>
</svg>