<svg version="1.1" xmlns="http://www.w3.org/2000/svg" xmlns:xlink="http://www.w3.org/1999/xlink" x="0px" y="0px" viewBox="0 0 1000 1000" enable-background="new 0 0 1000 1000" xml:space="preserve">
  <g><path fill="#333842" d="M316.2,749.8l-26.9,28.6c-3.2,3.4-7,5.1-11.5,5.1c-4.5,0-8.6-1.7-12.5-5.1L15.8,513.2c-3.8-4.1-5.8-8.5-5.8-13.3c0-4.8,1.9-9.2,5.8-13.3l249.6-265.2c3.2-4.1,7.4-6.1,12.5-6.1s9,2,11.5,6.1l26.9,28.6c3.8,3.4,5.8,7.8,5.8,13.3c0,5.4-1.9,9.5-5.8,12.2L106,500l210.2,223.3c3.8,4.1,5.8,8.5,5.8,13.3C321.9,741.3,320,745.8,316.2,749.8z M632.9,142L433.3,877.3c-1.3,4.8-4.2,8.5-8.6,11.2c-4.5,2.7-8.6,3.1-12.5,1l-32.6-9.2c-5.1-2-8.6-5.1-10.6-9.2c-1.9-4.1-2.6-8.8-1.9-14.3l199.6-734.3c1.9-5.4,4.8-9.2,8.6-11.2c3.8-2,8-2.7,12.5-2l33.6,10.2c4.5,1.4,8,4.4,10.6,9.2C634.5,133.5,634.9,137.9,632.9,142L632.9,142z M985.2,513.2L735.6,778.4c-3.8,3.4-8,5.1-12.5,5.1c-4.5,0-8.6-1.7-12.5-5.1l-26.9-28.6c-3.2-4.1-4.8-8.5-4.8-13.3c0-4.8,1.6-9.2,4.8-13.3L894,500L683.8,275.6c-3.2-3.4-4.8-7.5-4.8-12.2c0-4.8,1.6-9.2,4.8-13.3l26.9-28.6c3.8-4.1,8-6.1,12.5-6.1c4.5,0,8.6,2,12.5,6.1l249.6,265.2c3.2,3.4,4.8,7.8,4.8,13.3C990,505.4,988.4,509.8,985.2,513.2z"/></g>
</svg>