<svg width="15" height="19" viewBox="0 0 15 19" fill="none" xmlns="http://www.w3.org/2000/svg">
<path fill-rule="evenodd" clip-rule="evenodd" d="M2.04849 10.6209C2.04849 13.6409 4.50538 16.0977 7.52529 16.0977C10.5452 16.0977 13.0021 13.6409 13.0021 10.6209V1.31038C13.0021 1.00806 12.7567 0.762695 12.4544 0.762695C12.1521 0.762695 11.9067 1.00806 11.9067 1.31038V10.6209C11.9067 13.0373 9.94166 15.0024 7.52529 15.0024C5.10892 15.0024 3.14385 13.0373 3.14385 10.6209V1.31038C3.14385 1.00806 2.89849 0.762695 2.59617 0.762695C2.29385 0.762695 2.04849 1.00806 2.04849 1.31038V10.6209ZM0.953125 17.7408C0.953125 18.0431 1.19849 18.2885 1.50081 18.2885H13.5498C13.8521 18.2885 14.0975 18.0431 14.0975 17.7408C14.0975 17.4385 13.8521 17.1931 13.5498 17.1931H1.50081C1.19849 17.1931 0.953125 17.4385 0.953125 17.7408Z" fill="#333842"/>
</svg>
