<svg width="36" height="36" viewBox="0 0 36 36" fill="none" xmlns="http://www.w3.org/2000/svg">
  <rect opacity="0.01" width="35.0515" height="35.0515" rx="3.50515" transform="matrix(-1 0 0 1 35.0508 0)" fill="#0565FF"/>
  <rect opacity="0.01" x="9.19986" y="9.20084" width="16.6495" height="16.6495" fill="#D8D8D8" stroke="#979797" stroke-width="0.876289"/>
  <path fill-rule="evenodd" clip-rule="evenodd" d="M12.0478 12.5962C12.0478 13.5042 11.3128 14.2392 10.4048 14.2392C9.49671 14.2392 8.76172 13.5042 8.76172 12.5962C8.76172 11.6881 9.49671 10.9531 10.4048 10.9531C11.3128 10.9531 12.0478 11.6881 12.0478 12.5962Z" fill="#333842"/>
  <path fill-rule="evenodd" clip-rule="evenodd" d="M12.0478 18.0727C12.0478 18.9808 11.3128 19.7158 10.4048 19.7158C9.49671 19.7158 8.76172 18.9808 8.76172 18.0727C8.76172 17.1647 9.49671 16.4297 10.4048 16.4297C11.3128 16.4297 12.0478 17.1647 12.0478 18.0727Z" fill="#333842"/>
  <path fill-rule="evenodd" clip-rule="evenodd" d="M12.0478 23.5493C12.0478 24.4573 11.3128 25.1923 10.4048 25.1923C9.49671 25.1923 8.76172 24.4573 8.76172 23.5493C8.76172 22.6412 9.49671 21.9062 10.4048 21.9062C11.3128 21.9062 12.0478 22.6412 12.0478 23.5493Z" fill="#333842"/>
  <path fill-rule="evenodd" clip-rule="evenodd" d="M25.7396 13.1442H14.786C14.4836 13.1442 14.2383 12.8988 14.2383 12.5965C14.2383 12.2942 14.4836 12.0488 14.786 12.0488H25.7396C26.0419 12.0488 26.2873 12.2942 26.2873 12.5965C26.2873 12.8988 26.0419 13.1442 25.7396 13.1442Z" fill="#333842"/>
  <path fill-rule="evenodd" clip-rule="evenodd" d="M25.7396 18.6208H14.786C14.4836 18.6208 14.2383 18.3754 14.2383 18.0731C14.2383 17.7708 14.4836 17.5254 14.786 17.5254H25.7396C26.0419 17.5254 26.2873 17.7708 26.2873 18.0731C26.2873 18.3754 26.0419 18.6208 25.7396 18.6208Z" fill="#333842"/>
  <path fill-rule="evenodd" clip-rule="evenodd" d="M25.7396 24.0973H14.786C14.4836 24.0973 14.2383 23.852 14.2383 23.5496C14.2383 23.2473 14.4836 23.002 14.786 23.002H25.7396C26.0419 23.002 26.2873 23.2473 26.2873 23.5496C26.2873 23.852 26.0419 24.0973 25.7396 24.0973Z" fill="#333842"/>
</svg>
