<svg width="14" height="11" viewBox="0 0 14 11" fill="none" xmlns="http://www.w3.org/2000/svg">
  <path fill-rule="evenodd" clip-rule="evenodd" d="M0.000271725 3.56281C0.000271699 3.37882 0.242933 3.22949 0.541927 3.22949L12.4583 3.22949C12.7573 3.22949 13 3.37882 13 3.56281C13 3.7468 12.7573 3.89612 12.4583 3.89612L0.541927 3.89612C0.242933 3.89612 0.000271751 3.7468 0.000271725 3.56281" fill="#333842"/>
  <path fill-rule="evenodd" clip-rule="evenodd" d="M0.00114325 3.5625C0.00114324 3.47717 0.0542254 3.39184 0.159307 3.32651L4.49255 0.659995C4.70488 0.530002 5.04721 0.530002 5.25953 0.659995C5.47078 0.790654 5.47078 1.00131 5.25953 1.13197L1.3087 3.5625L5.25954 5.99303C5.47078 6.12369 5.47078 6.33435 5.25954 6.46501C5.04721 6.595 4.70488 6.595 4.49255 6.46501L0.159307 3.79849C0.0542255 3.73316 0.00114326 3.64783 0.00114325 3.5625Z" fill="#333842"/>
  <path fill-rule="evenodd" clip-rule="evenodd" d="M13.125 7.99969C13.125 8.18368 12.88 8.33301 12.5781 8.33301L0.546875 8.33301C0.245 8.33301 -2.14186e-08 8.18368 -4.78093e-08 7.99969C-7.42001e-08 7.8157 0.245 7.66638 0.546875 7.66638L12.5781 7.66638C12.88 7.66638 13.125 7.8157 13.125 7.99969" fill="#333842"/>
  <path fill-rule="evenodd" clip-rule="evenodd" d="M13.1253 8C13.1253 8.08533 13.0717 8.17066 12.9656 8.23599L8.59059 10.9025C8.37621 11.0325 8.03059 11.0325 7.81621 10.9025C7.60293 10.7718 7.60293 10.5612 7.81621 10.4305L11.8051 8L7.81621 5.56947C7.60293 5.43881 7.60293 5.22815 7.81621 5.09749C8.03059 4.9675 8.37621 4.9675 8.59059 5.09749L12.9656 7.76401C13.0717 7.82934 13.1253 7.91467 13.1253 8Z" fill="#333842"/>
</svg>
